REM DIRINDEX 1\6,1\2\7,1\2\8,1\2\9,1\3\10,1\3\11,1\4\12,1\4\13,1\4\14,1\5\15,1\5\16,1\5\17
REM DIRNAME folder01,folder02,folder03,folder04,folder05,folder06,folder07,folder08,folder09,folder10,folder11,folder12,folder13,folder14,folder15,folder16,folder17
TITLE ""
FILE "P2Q_t_0286-0303.mp3" MP3
  TRACK 01 AUDIO
    TITLE "10:cjc040_2222"
    INDEX 01 00:00:00
  TRACK 02 AUDIO
    TITLE "0:"
    INDEX 01 00:01:11
  TRACK 03 AUDIO
    TITLE "11:cjc040_2223"
    INDEX 01 00:01:71
  TRACK 04 AUDIO
    TITLE "0:"
    INDEX 01 00:05:50
  TRACK 05 AUDIO
    TITLE "10:cjc040_2224"
    INDEX 01 00:06:30
  TRACK 06 AUDIO
    TITLE "0:"
    INDEX 01 00:07:41
  TRACK 07 AUDIO
    TITLE "11:cjc040_2225"
    INDEX 01 00:08:17
  TRACK 08 AUDIO
    TITLE "0:"
    INDEX 01 00:09:57
  TRACK 09 AUDIO
    TITLE "10:cjc040_2226"
    INDEX 01 00:10:37
  TRACK 10 AUDIO
    TITLE "0:"
    INDEX 01 00:11:42
  TRACK 11 AUDIO
    TITLE "11:cjc040_2227"
    INDEX 01 00:12:20
  TRACK 12 AUDIO
    TITLE "0:"
    INDEX 01 00:14:45
  TRACK 13 AUDIO
    TITLE "10:cjc040_2228"
    INDEX 01 00:15:19
  TRACK 14 AUDIO
    TITLE "0:"
    INDEX 01 00:16:30
  TRACK 15 AUDIO
    TITLE "11:cjc040_2229"
    INDEX 01 00:17:14
  TRACK 16 AUDIO
    TITLE "0:"
    INDEX 01 00:19:60
  TRACK 17 AUDIO
    TITLE "10:cjc040_2230"
    INDEX 01 00:20:41
  TRACK 18 AUDIO
    TITLE "0:"
    INDEX 01 00:21:72
  TRACK 19 AUDIO
    TITLE "11:cjc040_2231"
    INDEX 01 00:22:56
  TRACK 20 AUDIO
    TITLE "0:"
    INDEX 01 00:25:27
  TRACK 21 AUDIO
    TITLE "10:cjc040_2232"
    INDEX 01 00:26:07
  TRACK 22 AUDIO
    TITLE "0:"
    INDEX 01 00:27:18
  TRACK 23 AUDIO
    TITLE "11:cjc040_2233"
    INDEX 01 00:28:00
  TRACK 24 AUDIO
    TITLE "0:"
    INDEX 01 00:30:44
  TRACK 25 AUDIO
    TITLE "10:cjc040_2234"
    INDEX 01 00:31:26
  TRACK 26 AUDIO
    TITLE "0:"
    INDEX 01 00:32:41
  TRACK 27 AUDIO
    TITLE "11:cjc040_2235"
    INDEX 01 00:33:21
  TRACK 28 AUDIO
    TITLE "0:"
    INDEX 01 00:36:23
  TRACK 29 AUDIO
    TITLE "10:cjc040_2236"
    INDEX 01 00:37:08
  TRACK 30 AUDIO
    TITLE "0:"
    INDEX 01 00:38:24
  TRACK 31 AUDIO
    TITLE "11:cjc040_2237"
    INDEX 01 00:39:03
  TRACK 32 AUDIO
    TITLE "0:"
    INDEX 01 00:41:36
  TRACK 33 AUDIO
    TITLE "10:cjc040_2238"
    INDEX 01 00:42:14
  TRACK 34 AUDIO
    TITLE "0:"
    INDEX 01 00:43:21
  TRACK 35 AUDIO
    TITLE "11:cjc040_2239"
    INDEX 01 00:44:05
  TRACK 36 AUDIO
    TITLE "0:"
    INDEX 01 00:46:27
  TRACK 37 AUDIO
    TITLE "10:cjc040_2240"
    INDEX 01 00:47:09
  TRACK 38 AUDIO
    TITLE "0:"
    INDEX 01 00:48:36
  TRACK 39 AUDIO
    TITLE "11:cjc040_2241"
    INDEX 01 00:49:14
  TRACK 40 AUDIO
    TITLE "0:"
    INDEX 01 00:50:29
  TRACK 41 AUDIO
    TITLE "10:cjc040_2242"
    INDEX 01 00:51:13
  TRACK 42 AUDIO
    TITLE "0:"
    INDEX 01 00:52:36
  TRACK 43 AUDIO
    TITLE "11:cjc040_2243"
    INDEX 01 00:53:13
  TRACK 44 AUDIO
    TITLE "0:"
    INDEX 01 00:54:23
  TRACK 45 AUDIO
    TITLE "10:cjc040_2244"
    INDEX 01 00:55:03
  TRACK 46 AUDIO
    TITLE "0:"
    INDEX 01 00:56:18
  TRACK 47 AUDIO
    TITLE "11:cjc040_2245"
    INDEX 01 00:57:01
  TRACK 48 AUDIO
    TITLE "0:"
    INDEX 01 01:02:69
  TRACK 49 AUDIO
    TITLE "10:cjc040_2246"
    INDEX 01 01:03:53
  TRACK 50 AUDIO
    TITLE "0:"
    INDEX 01 01:04:60
  TRACK 51 AUDIO
    TITLE "11:cjc040_2247"
    INDEX 01 01:05:38
  TRACK 52 AUDIO
    TITLE "0:"
    INDEX 01 01:06:42
  TRACK 53 AUDIO
    TITLE "10:cjc040_2248"
    INDEX 01 01:07:19
  TRACK 54 AUDIO
    TITLE "0:"
    INDEX 01 01:08:35
  TRACK 55 AUDIO
    TITLE "11:cjc040_2249"
    INDEX 01 01:09:14
  TRACK 56 AUDIO
    TITLE "0:"
    INDEX 01 01:12:60
  TRACK 57 AUDIO
    TITLE "10:cjc040_2250"
    INDEX 01 01:13:45
  TRACK 58 AUDIO
    TITLE "0:"
    INDEX 01 01:14:53
  TRACK 59 AUDIO
    TITLE "11:cjc040_2251"
    INDEX 01 01:15:31
  TRACK 60 AUDIO
    TITLE "0:"
    INDEX 01 01:16:61
  TRACK 61 AUDIO
    TITLE "10:cjc040_2252"
    INDEX 01 01:17:35
  TRACK 62 AUDIO
    TITLE "0:"
    INDEX 01 01:18:41
  TRACK 63 AUDIO
    TITLE "11:cjc040_2253"
    INDEX 01 01:19:28
  TRACK 64 AUDIO
    TITLE "0:"
    INDEX 01 01:20:32
  TRACK 65 AUDIO
    TITLE "10:cjc040_2254"
    INDEX 01 01:21:08
  TRACK 66 AUDIO
    TITLE "0:"
    INDEX 01 01:22:11
  TRACK 67 AUDIO
    TITLE "11:cjc040_2255"
    INDEX 01 01:22:68
  TRACK 68 AUDIO
    TITLE "0:"
    INDEX 01 01:23:71
  TRACK 69 AUDIO
    TITLE "10:cjc040_2256"
    INDEX 01 01:24:49
  TRACK 70 AUDIO
    TITLE "0:"
    INDEX 01 01:25:51
  TRACK 71 AUDIO
    TITLE "11:cjc040_2257"
    INDEX 01 01:26:34
  TRACK 72 AUDIO
    TITLE "0:"
    INDEX 01 01:28:63
